<svg style="max-height: 500px" version="1.0" xmlns="http://www.w3.org/2000/svg" viewBox="0 307.20000000000005 1280 76.80000000000001" preserveAspectRatio="xMidYMid meet" width="1280" height="76.80000000000001">
<metadata>
Created by potrace 1.15, written by Peter Selinger 2001-2017
</metadata>
<g transform="translate(0.000000,640.000000) scale(0.100000,-0.100000)" fill="#ffffff" stroke="none">
<path d="M11795 3294 c-272 -83 -1112 -201 -1925 -269 -118 -10 -160 -17 -160&#10;-26 0 -5 126 -9 298 -9 1125 0 2278 -128 2597 -287 57 -29 115 -80 115 -102 0&#10;-10 -8 -7 -27 11 -99 92 -398 169 -858 222 -575 66 -1278 91 -2340 83 -1179&#10;-9 -2060 -54 -2467 -128 -124 -22 -275 -26 -340 -8 -65 17 -133 55 -174 96&#10;-45 47 -92 142 -100 206 -8 58 -20 60 -29 5 -22 -129 -92 -227 -203 -280 -61&#10;-29 -78 -32 -182 -36 -88 -3 -141 1 -225 17 -397 74 -1272 119 -2475 128 -947&#10;7 -1576 -11 -2100 -58 -568 -51 -951 -133 -1072 -230 -41 -32 -53 -26 -15 8&#10;179 165 1085 297 2282 333 176 5 404 10 508 10 196 0 248 13 99 24 -163 13&#10;-776 76 -982 101 -461 57 -866 127 -1032 179 l-78 24 23 -30 c78 -102 88 -127&#10;66 -167 -25 -47 -90 -68 -289 -96 -416 -58 -625 -131 -687 -241 -28 -49 -29&#10;-95 -2 -150 32 -67 34 -68 151 -45 360 72 1051 141 1848 186 1589 89 2931 62&#10;3775 -76 284 -47 392 -34 489 59 44 43 92 136 102 199 8 52 19 48 28 -8 8 -53&#10;47 -134 86 -181 75 -91 223 -117 445 -79 372 63 721 96 1303 122 305 13 1681&#10;7 2017 -10 1158 -57 1891 -123 2358 -212 60 -11 110 -19 112 -17 18 17 65 126&#10;65 149 0 99 -97 177 -292 237 -95 30 -193 49 -419 82 -199 29 -241 41 -279 83&#10;-31 32 -20 78 35 149 25 32 42 58 37 57 -4 0 -43 -11 -87 -25z"/>
</g>
</svg>